<?xml version="1.0" standalone="no"?>
<!DOCTYPE svg PUBLIC "-//W3C//DTD SVG 20010904//EN"
 "http://www.w3.org/TR/2001/REC-SVG-20010904/DTD/svg10.dtd">
<svg version="1.0" xmlns="http://www.w3.org/2000/svg"
 width="476.000000pt" height="112.000000pt" viewBox="0 0 476.000000 112.000000"
 preserveAspectRatio="xMidYMid meet">

<g transform="translate(0.000000,112.000000) scale(0.100000,-0.100000)"
fill="#000000" stroke="none">
<path d="M399 840 c-64 -19 -99 -62 -99 -121 0 -66 42 -106 145 -139 69 -22
91 -53 59 -84 -23 -24 -60 -19 -82 9 -17 21 -28 25 -71 25 -57 0 -62 -9 -35
-61 20 -40 84 -68 151 -69 98 0 158 49 158 132 0 62 -26 88 -126 128 -51 21
-80 39 -84 51 -15 45 50 67 82 29 13 -15 30 -20 70 -20 46 0 53 3 53 20 0 10
-13 35 -30 53 -42 48 -123 68 -191 47z"/>
<path d="M2629 841 c-69 -22 -99 -61 -99 -131 0 -56 34 -88 128 -124 81 -31
99 -51 76 -84 -20 -29 -58 -28 -82 3 -17 21 -28 25 -71 25 -57 0 -62 -9 -37
-59 23 -44 62 -63 135 -68 106 -7 174 42 174 127 0 62 -27 90 -119 126 -85 34
-106 53 -88 82 16 26 60 28 76 3 11 -17 23 -21 71 -21 l59 0 -6 28 c-17 71
-129 119 -217 93z"/>
<path d="M1653 749 c-50 -10 -83 -36 -104 -82 -39 -87 -13 -204 55 -247 43
-26 111 -26 154 0 32 20 32 20 32 0 0 -18 7 -20 55 -20 l55 0 0 175 0 175 -55
0 c-50 0 -55 -2 -55 -22 0 -20 -1 -20 -19 -4 -25 23 -78 34 -118 25z m116
-115 c44 -55 12 -144 -52 -144 -45 0 -77 34 -77 84 0 79 84 118 129 60z"/>
<path d="M3455 750 c-45 -10 -81 -37 -99 -74 -39 -82 -28 -172 29 -234 32 -35
36 -37 98 -37 50 0 70 4 86 19 21 19 21 19 21 -2 0 -20 5 -22 55 -22 l55 0 0
175 0 175 -55 0 c-50 0 -55 -2 -55 -22 0 -20 -1 -20 -19 -4 -25 23 -77 34
-116 26z m112 -112 c31 -29 32 -92 1 -125 -46 -49 -128 -11 -128 60 0 75 75
114 127 65z"/>
<path d="M3897 749 c-76 -13 -128 -72 -135 -154 -10 -118 59 -195 174 -195 77
0 138 41 158 108 7 21 5 22 -46 22 -41 0 -58 -5 -71 -20 -23 -27 -71 -26 -91
2 -22 31 -20 100 2 128 22 27 70 30 88 6 9 -13 25 -16 68 -14 l56 3 -17 34
c-33 64 -103 94 -186 80z"/>
<path d="M4265 744 c-113 -28 -160 -170 -90 -275 29 -44 79 -69 139 -69 60 0
105 19 139 59 41 49 36 61 -26 61 -41 0 -58 -5 -72 -20 -10 -11 -29 -20 -42
-20 -26 0 -63 32 -63 55 0 13 20 15 120 15 l120 0 0 37 c0 45 -32 112 -65 136
-37 27 -104 36 -160 21z m97 -91 c35 -32 23 -43 -47 -43 -69 0 -78 7 -45 40
24 24 67 26 92 3z"/>
<path d="M750 728 c-47 -33 -70 -82 -70 -151 0 -109 58 -177 152 -177 35 0 54
6 77 26 l31 26 0 -26 c0 -25 2 -26 55 -26 l55 0 0 175 0 175 -55 0 c-48 0 -55
-2 -55 -20 0 -20 0 -20 -32 0 -46 28 -116 26 -158 -2z m163 -85 c24 -27 31
-70 17 -104 -29 -69 -118 -65 -139 7 -10 36 3 85 26 101 24 19 77 16 96 -4z"/>
<path d="M1130 575 l0 -175 50 0 50 0 0 109 c0 126 13 154 69 154 56 0 66 -20
69 -148 l4 -115 49 0 49 0 0 126 c0 141 -11 178 -59 207 -39 23 -108 22 -148
-3 -33 -20 -33 -20 -33 0 0 17 -7 20 -50 20 l-50 0 0 -175z"/>
<path d="M2030 728 c-47 -33 -70 -82 -70 -151 0 -109 58 -177 152 -177 35 0
54 6 77 26 l31 26 0 -26 c0 -25 2 -26 55 -26 l55 0 0 175 0 175 -55 0 c-48 0
-55 -2 -55 -20 0 -20 0 -20 -32 0 -46 28 -116 26 -158 -2z m163 -85 c24 -27
31 -70 17 -104 -29 -69 -118 -65 -139 7 -10 36 3 85 26 101 24 19 77 16 96 -4z"/>
<path d="M2930 490 l0 -260 50 0 50 0 0 106 0 106 34 -21 c43 -27 110 -27 153
-1 90 54 99 224 18 300 -36 34 -122 40 -170 12 -34 -21 -35 -21 -35 -2 0 17
-7 20 -50 20 l-50 0 0 -260z m220 160 c42 -22 44 -115 3 -146 -49 -37 -123 5
-123 69 0 68 62 108 120 77z"/>
</g>
</svg>
